<svg xmlns="http://www.w3.org/2000/svg" width="32" height="32" viewBox="0 0 32 32">
    <g fill="none" fill-rule="evenodd">
        <circle cx="16" cy="16" r="16" fill="#103B64"/>
        <path fill="#FFF" fill-rule="nonzero" d="M19.923 11.78c.026-.843.006-1.749.003-1.78h-7.87c0 .031-.022.937.004 1.78H10c0 2.125.286 3.197.606 3.96.32.762.761 1.415 1.693 2.196.868.728 2.755 1.674 3.009 1.8v.883c-.133.313-.678.881-2.403.881h-.597V23h7.384v-1.5h-.741c-1.751 0-2.163-.596-2.259-.88v-.885c.269-.144 2.334-1.259 3.012-1.796.727-.575 1.468-1.61 1.693-2.197.225-.587.603-2.024.603-3.961h-2.077zm-8.146 3.34c-.254-.568-.404-1.183-.453-1.933h.828c.02.187.04.353.066.509.19 1.225.427 2.193.742 3.015a4.434 4.434 0 0 1-1.183-1.59zm8.446 0a4.462 4.462 0 0 1-1.2 1.603c.317-.818.548-1.774.744-3.027.023-.156.046-.322.067-.51h.845c-.052.75-.2 1.366-.456 1.935z"/>
    </g>
</svg>
