<?xml version="1.0" encoding="UTF-8" standalone="no"?>
<!DOCTYPE svg PUBLIC "-//W3C//DTD SVG 1.1//EN" "http://www.w3.org/Graphics/SVG/1.1/DTD/svg11.dtd">
<svg width="100%" height="100%" viewBox="0 0 88 92" version="1.1" xmlns="http://www.w3.org/2000/svg" xmlns:xlink="http://www.w3.org/1999/xlink" xml:space="preserve" xmlns:serif="http://www.serif.com/" style="fill-rule:evenodd;clip-rule:evenodd;stroke-linejoin:round;stroke-miterlimit:1.41421;">
    <g transform="matrix(1,0,0,1,-4.03125,19.6125)">
        <path d="M90,72.356C89.438,72.356 88.969,72.169 88.594,71.794C88.219,71.419 88.031,70.95 88.031,70.387L88.031,66.356C88.031,63.919 87.203,61.825 85.547,60.075C83.891,58.325 81.859,56.903 79.453,55.809C77.047,54.716 74.453,53.919 71.672,53.419C68.891,52.919 66.344,52.669 64.031,52.669C63.719,52.669 63.422,52.606 63.141,52.481C62.859,52.356 62.625,52.169 62.438,51.919L53.438,40.2C53.063,39.762 52.922,39.278 53.016,38.747C53.109,38.216 53.375,37.794 53.813,37.481C54.25,37.106 54.734,36.95 55.266,37.012C55.797,37.075 56.25,37.325 56.625,37.762L64.969,48.731C67.781,48.794 70.766,49.153 73.922,49.809C77.078,50.466 80,51.497 82.688,52.903C85.375,54.309 87.594,56.122 89.344,58.341C91.094,60.559 91.969,63.231 91.969,66.356L91.969,70.387C91.969,70.95 91.781,71.419 91.406,71.794C91.031,72.169 90.563,72.356 90,72.356ZM6,72.356C5.438,72.356 4.969,72.169 4.594,71.794C4.219,71.419 4.031,70.95 4.031,70.387L4.031,66.356C4.031,63.231 4.906,60.559 6.656,58.341C8.406,56.122 10.625,54.309 13.313,52.903C16,51.497 18.922,50.466 22.078,49.809C25.234,49.153 28.219,48.794 31.031,48.731L39.938,37.762C40.313,37.325 40.766,37.075 41.297,37.012C41.828,36.95 42.313,37.106 42.75,37.481C43.188,37.856 43.438,38.309 43.5,38.841C43.563,39.372 43.406,39.856 43.031,40.294L33.563,52.012C33.375,52.2 33.141,52.372 32.859,52.528C32.578,52.684 32.281,52.762 31.969,52.762C29.656,52.762 27.109,52.997 24.328,53.466C21.547,53.934 18.953,54.716 16.547,55.809C14.141,56.903 12.109,58.325 10.453,60.075C8.797,61.825 7.969,63.95 7.969,66.45L7.969,70.387C7.969,70.95 7.781,71.419 7.406,71.794C7.031,72.169 6.563,72.356 6,72.356ZM48,40.387C42.125,40.387 37.156,39.684 33.094,38.278C29.031,36.872 25.688,35.231 23.063,33.356C20.438,31.481 18.438,29.591 17.063,27.684C15.688,25.778 14.75,24.325 14.25,23.325C14.063,23.012 13.984,22.684 14.016,22.341C14.047,21.997 14.125,21.669 14.25,21.356C15.25,19.794 16.703,17.247 18.609,13.716C20.516,10.184 21.656,7.606 22.031,5.981C23.031,1.919 24.344,-1.706 25.969,-4.894C27.594,-8.081 29.516,-10.753 31.734,-12.909C33.953,-15.066 36.422,-16.722 39.141,-17.878C41.859,-19.034 44.813,-19.613 48,-19.613C51.188,-19.613 54.141,-19.034 56.859,-17.878C59.578,-16.722 62.047,-15.066 64.266,-12.909C66.484,-10.753 68.406,-8.081 70.031,-4.894C71.656,-1.706 72.969,1.919 73.969,5.981C74.344,7.606 75.484,10.184 77.391,13.716C79.297,17.247 80.75,19.794 81.75,21.356C81.875,21.669 81.953,21.997 81.984,22.341C82.016,22.684 81.938,23.012 81.75,23.325C81.25,24.325 80.313,25.778 78.938,27.684C77.563,29.591 75.563,31.481 72.938,33.356C70.313,35.231 66.969,36.872 62.906,38.278C58.844,39.684 53.875,40.387 48,40.387ZM18.281,22.481C18.906,23.544 19.891,24.856 21.234,26.419C22.578,27.981 24.422,29.512 26.766,31.012C29.109,32.512 32.016,33.778 35.484,34.809C38.953,35.841 43.125,36.356 48,36.356C52.875,36.356 57.047,35.841 60.516,34.809C63.984,33.778 66.891,32.512 69.234,31.012C71.578,29.512 73.422,27.981 74.766,26.419C76.109,24.856 77.094,23.544 77.719,22.481C76.844,20.919 75.469,18.419 73.594,14.981C71.719,11.544 70.531,8.825 70.031,6.825C69.656,5.137 69,3.028 68.063,0.497C67.125,-2.034 65.797,-4.503 64.078,-6.909C62.359,-9.316 60.188,-11.363 57.563,-13.05C54.938,-14.738 51.75,-15.581 48,-15.581C44.25,-15.581 41.063,-14.738 38.438,-13.05C35.813,-11.363 33.641,-9.316 31.922,-6.909C30.203,-4.503 28.875,-2.034 27.938,0.497C27,3.028 26.344,5.137 25.969,6.825C25.469,8.825 24.281,11.544 22.406,14.981C20.531,18.419 19.156,20.919 18.281,22.481ZM40.031,72.356L39.656,72.356C39.344,72.294 39.047,72.169 38.766,71.981C38.484,71.794 38.281,71.544 38.156,71.231L30.188,53.231C30,52.794 29.953,52.372 30.047,51.966C30.141,51.559 30.344,51.2 30.656,50.887C31.031,50.575 31.438,50.403 31.875,50.372C32.313,50.341 32.719,50.45 33.094,50.7L49.031,60.731C49.281,60.856 49.5,61.044 49.688,61.294C49.875,61.544 49.969,61.825 49.969,62.137C50.031,62.45 50.016,62.747 49.922,63.028C49.828,63.309 49.656,63.575 49.406,63.825L41.438,71.794C41.25,71.981 41.031,72.122 40.781,72.216C40.531,72.309 40.281,72.356 40.031,72.356ZM36.469,57.544L40.688,66.919L44.813,62.794L36.469,57.544ZM55.969,72.356C55.719,72.356 55.469,72.309 55.219,72.216C54.969,72.122 54.75,71.981 54.563,71.794L46.594,63.825C46.344,63.637 46.172,63.387 46.078,63.075C45.984,62.762 45.969,62.45 46.031,62.137C46.031,61.887 46.125,61.622 46.313,61.341C46.5,61.059 46.719,60.856 46.969,60.731L62.906,50.7C63.281,50.45 63.688,50.341 64.125,50.372C64.563,50.403 64.969,50.575 65.344,50.887C65.656,51.2 65.859,51.559 65.953,51.966C66.047,52.372 66,52.794 65.813,53.231L57.844,71.231C57.719,71.544 57.516,71.794 57.234,71.981C56.953,72.169 56.656,72.294 56.344,72.356L55.969,72.356ZM51.188,62.794L55.313,66.919L59.531,57.544L51.188,62.794Z" style="fill-rule:nonzero;"/>
    </g>
</svg>
