<?xml version="1.0" encoding="utf-8"?>
<!-- Generator: Adobe Illustrator 23.0.3, SVG Export Plug-In . SVG Version: 6.00 Build 0)  -->
<svg version="1.1" id="Layer_1" xmlns="http://www.w3.org/2000/svg" xmlns:xlink="http://www.w3.org/1999/xlink" x="0px" y="0px"
	 viewBox="0 0 995.1 139.2" style="enable-background:new 0 0 995.1 139.2;" xml:space="preserve">
<style type="text/css">
	.st0{fill:#FFFFFF;}
</style>
<g>
	<polygon class="st0" points="203.1,111.2 202.8,111.2 182,50 154.4,50 154.4,139.1 172.8,139.1 172.8,76.5 173,76.5 194.9,139.1 
		210,139.1 231.8,75.9 232.1,75.9 232.1,139.1 250.4,139.1 250.4,50 222.8,50 	"/>
	<polygon class="st0" points="285.4,100.8 328.6,100.8 328.6,85.5 285.4,85.5 285.4,66.4 332.5,66.4 332.5,50 265.8,50 265.8,139.1 
		333.5,139.1 333.5,122.6 285.4,122.6 	"/>
	<polygon class="st0" points="404.9,109.7 404.6,109.7 367.4,50 348,50 348,139.1 366.3,139.1 366.3,79.4 366.6,79.4 403.6,139.1 
		423.2,139.1 423.2,50 404.9,50 	"/>
	<polygon class="st0" points="438.8,66.5 465.5,66.5 465.5,139.1 485.1,139.1 485.1,66.5 511.8,66.5 511.8,50 438.8,50 	"/>
	<path class="st0" d="M561.2,49.7c-26.3,0-41.9,19.7-41.9,45c0,24.6,15.6,44.3,41.9,44.3c26.3,0,41.9-19.7,41.9-44.3
		C603.1,69.4,587.5,49.7,561.2,49.7z M561.2,123.3c-16.8,0-23.2-14.3-23.2-28.5c0-14.9,6.3-29.3,23.2-29.3s23.2,14.3,23.2,29.3
		C584.4,109,578.1,123.3,561.2,123.3z"/>
	<path class="st0" d="M678.5,97.2v-0.2c10-4,14.1-11.9,14.1-22.3c0-13.5-10.1-24.6-26.1-24.6h-48v89.1h19.6v-34.8h19.6
		c9.9,0,13.5,4.1,14.9,13.5c1,7.1,0.9,15.7,3.1,21.3h19.6c-3.6-4.9-3.4-15.5-3.7-21.1C690.9,108.9,688.1,99.8,678.5,97.2z
		 M659.6,90.3h-21.5V65.2h21.5c8.9,0,13.5,3.7,13.5,12.4C673,86.6,668.4,90.3,659.6,90.3z"/>
	<path class="st0" d="M757.2,87c-21.3-5.4-25.4-6.3-25.4-12.9c0-7.2,6.9-9.7,12.9-9.7c9.1,0,16.2,2.7,16.8,12.9h18.1
		c0-19.7-16.3-27.4-34.1-27.4c-15.4,0-31.8,8.2-31.8,25.8c0,15.7,12.8,21.1,25.4,24.2c12.4,3.5,25.3,4.8,25.3,14.1
		c0,8.7-10,10.6-16.6,10.6c-10,0-18.8-4.4-18.8-15.7h-18.1c-0.4,21,17.4,30.3,36.3,30.3c23.3,0,35.4-11.7,35.4-27.3
		C782.5,92.7,763.5,88.5,757.2,87z"/>
	<polygon class="st0" points="853.7,84.2 817.7,84.2 817.7,50 798.1,50 798.1,139.1 817.7,139.1 817.7,100.7 853.7,100.7 
		853.7,139.1 873.3,139.1 873.3,50 853.7,50 	"/>
	<rect x="888.9" y="49.9" class="st0" width="19.6" height="89.1"/>
	<path class="st0" d="M964.2,50H924v89.1h19.6v-31.9h20.6c22.3,0,30.8-14.1,30.8-28.6C995.1,64.1,986.6,50,964.2,50z M958.9,91.9
		h-15.2V65.2h15.2c9,0,17.2,2,17.2,13.4C976.1,89.9,967.9,91.9,958.9,91.9z"/>
	<path class="st0" d="M69.4,0.1C31.1,0.1,0,31.1,0,69.4s31.1,69.4,69.4,69.4s69.4-31.1,69.4-69.4S107.7,0.1,69.4,0.1z M17.6,83.7
		c-3.5,0-6.3-2.8-6.3-6.3c0-3.5,2.8-6.3,6.3-6.3s6.3,2.8,6.3,6.3C23.8,80.9,21,83.7,17.6,83.7z M34.8,83.7c-3.5,0-6.3-2.8-6.3-6.3
		c0-3.5,2.8-6.3,6.3-6.3s6.3,2.8,6.3,6.3C41.1,80.9,38.3,83.7,34.8,83.7z M34.8,67.2c-3.5,0-6.3-2.8-6.3-6.3c0-3.5,2.8-6.3,6.3-6.3
		s6.3,2.8,6.3,6.3C41.1,64.4,38.3,67.2,34.8,67.2z M58.1,73.6v5.2v0.3V81v10.7V92v1.9c0,3.3-2.7,6-6,6s-6-2.7-6-6V92v-0.3V81v-1.9
		v-0.3v-5.2V60.7c0-3.3,2.7-6,6-6s6,2.7,6,6V73.6z M52.1,51.5c-3.5,0-6.3-2.8-6.3-6.3s2.8-6.3,6.3-6.3s6.3,2.8,6.3,6.3
		C58.4,48.7,55.6,51.5,52.1,51.5z M69.4,83.7c-3.5,0-6.3-2.8-6.3-6.3c0-3.5,2.8-6.3,6.3-6.3c3.5,0,6.3,2.8,6.3,6.3
		C75.6,80.9,72.8,83.7,69.4,83.7z M92.6,73.6v5.2v0.3V81v10.7V92v1.9c0,3.3-2.7,6-6,6c-3.3,0-6-2.7-6-6V92v-0.3V81v-1.9v-0.3v-5.2
		V60.7c0-3.3,2.7-6,6-6c3.3,0,6,2.7,6,6V73.6z M86.6,51.5c-3.5,0-6.3-2.8-6.3-6.3s2.8-6.3,6.3-6.3c3.5,0,6.3,2.8,6.3,6.3
		C92.9,48.7,90.1,51.5,86.6,51.5z M103.8,83.7c-3.5,0-6.3-2.8-6.3-6.3c0-3.5,2.8-6.3,6.3-6.3c3.5,0,6.3,2.8,6.3,6.3
		C110.1,80.9,107.3,83.7,103.8,83.7z M103.8,67.2c-3.5,0-6.3-2.8-6.3-6.3c0-3.5,2.8-6.3,6.3-6.3c3.5,0,6.3,2.8,6.3,6.3
		C110.1,64.4,107.3,67.2,103.8,67.2z M121.1,83.7c-3.5,0-6.3-2.8-6.3-6.3c0-3.5,2.8-6.3,6.3-6.3s6.3,2.8,6.3,6.3
		C127.4,80.9,124.5,83.7,121.1,83.7z"/>
	<g>
		<path class="st0" d="M169,34.2c-9.9,0-14.1-7.9-14.1-15.7S159,2.9,169,2.9c5.5,0,10.2,3.1,11.5,8.6h3.6c-1-7.4-7.9-11.5-15-11.5
			c-11.9,0-17.8,8.8-17.8,18.6s5.9,18.6,17.7,18.6c8.8,0,14.6-5.6,15.6-14.4h-3.6C180.3,29.1,176,34.2,169,34.2z"/>
		<path class="st0" d="M207,0.1c-11.8,0-17.7,8.8-17.7,18.6s5.9,18.6,17.7,18.6c11.8,0,17.6-8.8,17.6-18.6
			C224.7,8.8,218.8,0.1,207,0.1z M207,34.2c-9.9,0-14.1-7.9-14.1-15.7S197.1,2.9,207,2.9c9.8,0,14,7.9,14,15.7
			C221.1,26.4,216.9,34.2,207,34.2z"/>
		<polygon class="st0" points="247.7,32.6 234.7,0.1 229.5,0.1 229.5,37.2 233,37.2 233,5.1 233.2,5.1 246,37.2 249.3,37.2 
			262.2,5.1 262.3,5.1 262.3,37.2 265.8,37.2 265.8,0.1 260.7,0.1 		"/>
		<polygon class="st0" points="288.9,32.6 275.9,0.1 270.7,0.1 270.7,37.2 274.2,37.2 274.2,5.1 274.4,5.1 287.2,37.2 290.6,37.2 
			303.4,5.1 303.5,5.1 303.5,37.2 307.1,37.2 307.1,0.1 301.8,0.1 		"/>
		<path class="st0" d="M335.6,22.6c0,5.4-1.9,7.9-7.8,7.9c-6.6,0-7.7-3.9-7.7-7.9V0.1h-8.2v22.6c0,9.9,5.8,14.6,16,14.6
			c10,0,16-4.8,16-14.6V0.1h-8.2L335.6,22.6L335.6,22.6z"/>
		<polygon class="st0" points="372.6,24.9 372.6,24.9 356.9,0.1 348.7,0.1 348.7,37.1 356.4,37.1 356.4,12.2 356.5,12.2 372.1,37.1 
			380.3,37.1 380.3,0.1 372.6,0.1 		"/>
		<rect x="385.1" y="0.1" class="st0" width="8.2" height="37.1"/>
		<polygon class="st0" points="398.2,6.9 409.4,6.9 409.4,37.1 417.6,37.1 417.6,6.9 428.9,6.9 428.9,0.1 398.2,0.1 		"/>
		<polygon class="st0" points="451.7,14.7 443,0.1 433.8,0.1 447.5,22.7 447.5,37.2 455.8,37.2 455.8,22.9 469.7,0.1 460.6,0.1 		
			"/>
		<path class="st0" d="M495.9,17.5L495.9,17.5c3.9-0.9,6.5-4.5,6.5-8.4c0-6.9-5.7-9.1-12.1-9.1h-15.8v37.1h15.8
			c12.2,0,13.4-7,13.4-10.5C503.8,21.7,500.6,18.2,495.9,17.5z M478.1,3h12.3c5.7,0,8.5,2.4,8.5,6.9c0,3.5-2.7,6.3-8.5,6.3h-12.3V3z
			 M490.4,34.1h-12.3V19.3h12.3c6.3,0,9.8,2.4,9.8,7.2C500.2,32.5,495.6,34.1,490.4,34.1z"/>
		<path class="st0" d="M528.4,19.3L528.4,19.3c4.8-1.1,7.3-4.8,7.3-9.5c0-6.7-5.3-9.7-11.4-9.7h-17.1v37.1h3.6V20.6h13.5
			c6.7-0.2,7.3,5.5,7.5,10.7c0.2,1.5,0.2,4.4,1,5.8h4c-1.6-1.8-1.6-6.9-1.8-9.5C534.7,23.2,533.3,20,528.4,19.3z M524.1,17.7h-13.4
			V3.1h13.4c5.4,0,8.1,2.8,8.1,7.4C532.2,15,528.4,17.7,524.1,17.7z"/>
		<rect x="541.6" y="0.1" class="st0" width="3.6" height="37.1"/>
		<path class="st0" d="M562.9,0.1h-13v37.1h13c11.4-0.2,17.3-6.3,17.3-18.6S574.3,0.3,562.9,0.1z M561.1,34.1h-7.6V3h7.6
			c10.8,0,15.4,4.4,15.4,15.6S571.9,34.1,561.1,34.1z"/>
		<path class="st0" d="M602.9,21.2h12.8c0.2,7.6-4.7,13.1-13,13.1c-9.9,0-14.1-7.9-14.1-15.7s4.2-15.7,14.1-15.7
			c7.1,0,11.6,4.8,12.1,8.9h3.6C616.9,4,610.6,0,602.7,0C590.9,0,585,8.8,585,18.6s5.9,18.6,17.7,18.6c5.4,0,10.5-2.1,13-7.3h0.1
			l0.5,6.5h2.6V18.3h-15.8L602.9,21.2L602.9,21.2z"/>
		<polygon class="st0" points="627.1,34.1 627.1,19.4 648.1,19.4 648.1,16.4 627.1,16.4 627.1,3 649.4,3 649.4,0.1 623.5,0.1 
			623.5,37.1 649.7,37.1 649.7,34.1 		"/>
	</g>
</g>
</svg>
