<?xml version="1.0" encoding="utf-8"?>
<!-- Generated by IcoMoon.io -->
<!DOCTYPE svg PUBLIC "-//W3C//DTD SVG 1.1//EN" "http://www.w3.org/Graphics/SVG/1.1/DTD/svg11.dtd">
<svg version="1.1" xmlns="http://www.w3.org/2000/svg" xmlns:xlink="http://www.w3.org/1999/xlink" width="120" height="120" viewBox="0 0 120 120">
<g id="icomoon-ignore">
	<line stroke-width="1" x1="" y1="" x2="" y2="" stroke="#449FDB" opacity=""></line>
</g>
	<path d="M60.64 50.348c-0.036 0-0.072 0-0.108-0.004-0.592-0.032-1.136-0.324-1.492-0.796l-27.32-36.424c-0.344-0.464-0.476-1.052-0.356-1.616s0.48-1.052 0.984-1.332c8.432-4.692 17.996-7.176 27.656-7.176 11.836 0 23.224 3.64 32.92 10.524 0.472 0.336 0.776 0.856 0.832 1.432s-0.136 1.148-0.532 1.568l-31.128 33.196c-0.376 0.4-0.908 0.628-1.456 0.628zM36.324 12.596l24.484 32.644 27.896-29.748c-8.588-5.568-18.46-8.496-28.704-8.496-8.212 0.004-16.348 1.932-23.676 5.6z" fill="#000000"></path>
	<path d="M91.072 107.376c-0.172 0-0.336-0.020-0.5-0.064-0.564-0.144-1.032-0.524-1.288-1.040l-22.024-44.060c-0.376-0.748-0.244-1.652 0.332-2.256l33.68-35.928c0.396-0.416 0.956-0.664 1.528-0.632 0.58 0.016 1.116 0.288 1.484 0.74 8.204 10.116 12.72 22.856 12.72 35.868 0 18.792-9.268 36.372-24.796 47.028-0.34 0.22-0.736 0.344-1.136 0.344zM71.46 61.672l20.348 40.712c13.312-10.004 21.192-25.676 21.192-42.384 0-11.332-3.684-22.44-10.42-31.532l-31.12 33.204z" fill="#000000"></path>
	<path d="M60 117c-31.428 0-57-25.572-57-57 0-15.324 6.004-29.708 16.908-40.504 0.412-0.408 0.98-0.612 1.552-0.572 0.576 0.040 1.108 0.332 1.452 0.796l32.28 43.040 24.24 48.408c0.252 0.516 0.276 1.12 0.060 1.656-0.224 0.536-0.66 0.948-1.208 1.136-5.968 2.012-12.12 3.040-18.284 3.040zM21.124 23.992c-9.124 9.832-14.124 22.528-14.124 36.008 0 29.228 23.776 53 53 53 4.976 0 9.944-0.72 14.804-2.148l-23-46.004-30.68-40.856z" fill="#000000"></path>
</svg>
