<?xml version="1.0" encoding="utf-8"?>
<!-- Generated by IcoMoon.io -->
<!DOCTYPE svg PUBLIC "-//W3C//DTD SVG 1.1//EN" "http://www.w3.org/Graphics/SVG/1.1/DTD/svg11.dtd">
<svg version="1.1" xmlns="http://www.w3.org/2000/svg" xmlns:xlink="http://www.w3.org/1999/xlink" width="120" height="120" viewBox="0 0 120 120">
<g id="icomoon-ignore">
	<line stroke-width="1" x1="" y1="" x2="" y2="" stroke="#449FDB" opacity=""></line>
</g>
	<path d="M60 119.5c-27.572 0-50-22.208-50-49.5v-52.5c0-0.552 0.228-1.080 0.628-1.456 0.404-0.38 0.944-0.584 1.492-0.54 21.288 1.28 34.136-2.7 46.5-14.452 0.772-0.736 1.984-0.736 2.752 0 10.692 10.168 18.764 15.884 46.512 14.452 0.528-0.036 1.084 0.168 1.484 0.548 0.4 0.376 0.624 0.9 0.624 1.448v52.5c0.008 27.292-22.416 49.5-49.992 49.5zM14 19.608v50.392c0 25.084 20.636 45.5 46 45.5s46-20.416 46-45.5v-50.408c-26.624 1.076-35.748-4.796-46.008-14.356-12.412 11.212-25.44 15.272-45.992 14.372z" fill="#000000"></path>
	<path d="M73.96 60.748c-1.108 0-2-0.896-2-2v-3.752c0-1.104 0.892-2 2-2 1.1 0 2 0.896 2 2v3.752c0 1.108-0.896 2-2 2z" fill="#000000"></path>
	<path d="M73.96 87.82c-1.108 0-2-0.9-2-2v-3.752c0-1.104 0.892-2 2-2 1.1 0 2 0.896 2 2v3.752c0 1.1-0.896 2-2 2z" fill="#000000"></path>
	<path d="M62.296 72.416h-3.752c-1.1 0-2-0.9-2-2s0.9-2 2-2h3.752c1.1 0 2 0.9 2 2s-0.892 2-2 2z" fill="#000000"></path>
	<path d="M89.368 72.416h-3.752c-1.108 0-2-0.9-2-2s0.892-2 2-2h3.752c1.1 0 2 0.9 2 2s-0.892 2-2 2z" fill="#000000"></path>
	<path d="M65.712 64.168c-0.508 0-1.024-0.196-1.416-0.584l-2.652-2.656c-0.78-0.78-0.78-2.048 0-2.832s2.048-0.78 2.832 0l2.648 2.648c0.78 0.784 0.78 2.048 0 2.832-0.384 0.396-0.896 0.592-1.412 0.592z" fill="#000000"></path>
	<path d="M84.852 83.308c-0.508 0-1.024-0.196-1.416-0.584l-2.652-2.656c-0.776-0.78-0.776-2.048 0-2.828 0.776-0.776 2.052-0.776 2.828 0l2.652 2.656c0.78 0.776 0.78 2.048 0 2.828-0.388 0.384-0.896 0.584-1.412 0.584z" fill="#000000"></path>
	<path d="M63.064 83.308c-0.516 0-1.024-0.196-1.416-0.584-0.78-0.78-0.78-2.052 0-2.828l2.652-2.656c0.78-0.776 2.048-0.776 2.828 0 0.78 0.78 0.78 2.048 0 2.828l-2.648 2.656c-0.396 0.384-0.904 0.584-1.416 0.584z" fill="#000000"></path>
	<path d="M82.204 64.168c-0.516 0-1.024-0.196-1.416-0.584-0.78-0.78-0.78-2.052 0-2.832l2.648-2.648c0.78-0.78 2.048-0.78 2.828 0s0.78 2.048 0 2.832l-2.648 2.652c-0.388 0.384-0.904 0.58-1.412 0.58z" fill="#000000"></path>
	<path d="M73.96 83.252c-7.312 0-13.256-5.94-13.256-13.252 0-7.308 5.944-13.252 13.256-13.252 7.304 0 13.252 5.944 13.252 13.252-0.008 7.308-5.952 13.252-13.252 13.252zM73.96 60.748c-5.1 0-9.256 4.152-9.256 9.252s4.156 9.252 9.256 9.252c5.092 0 9.252-4.148 9.252-9.252-0.008-5.1-4.156-9.252-9.252-9.252z" fill="#000000"></path>
	<path d="M58.96 39.5c-1.104 0-2-0.896-2-2v-2.5c0-1.104 0.896-2 2-2 1.1 0 2 0.896 2 2v2.5c0 1.104-0.9 2-2 2z" fill="#000000"></path>
	<path d="M58.96 57c-1.104 0-2-0.896-2-2v-2.5c0-1.104 0.896-2 2-2 1.1 0 2 0.896 2 2v2.5c0 1.104-0.9 2-2 2z" fill="#000000"></path>
	<path d="M51.46 47h-2.5c-1.104 0-2-0.896-2-2s0.896-2 2-2h2.5c1.1 0 2 0.896 2 2s-0.9 2-2 2z" fill="#000000"></path>
	<path d="M68.96 47h-2.5c-1.108 0-2-0.896-2-2s0.892-2 2-2h2.5c1.1 0 2 0.896 2 2s-0.896 2-2 2z" fill="#000000"></path>
	<path d="M53.656 41.696c-0.512 0-1.024-0.196-1.416-0.584l-1.768-1.764c-0.78-0.78-0.78-2.048 0-2.828 0.776-0.784 2.048-0.78 2.828 0l1.768 1.764c0.78 0.78 0.78 2.048 0 2.828-0.392 0.388-0.9 0.584-1.412 0.584z" fill="#000000"></path>
	<path d="M66.024 54.072c-0.508 0-1.024-0.196-1.416-0.584l-1.764-1.764c-0.78-0.78-0.78-2.048 0-2.828s2.048-0.78 2.828 0l1.764 1.764c0.78 0.78 0.78 2.048 0 2.828-0.388 0.388-0.896 0.584-1.412 0.584z" fill="#000000"></path>
	<path d="M51.884 54.072c-0.512 0-1.024-0.196-1.416-0.584-0.78-0.78-0.78-2.048 0-2.828l1.764-1.764c0.78-0.78 2.048-0.78 2.828 0s0.78 2.048 0 2.828l-1.764 1.764c-0.384 0.388-0.896 0.584-1.412 0.584z" fill="#000000"></path>
	<path d="M64.256 41.696c-0.512 0-1.024-0.196-1.416-0.588-0.78-0.78-0.78-2.048 0-2.828l1.764-1.764c0.78-0.78 2.048-0.784 2.828 0 0.78 0.78 0.78 2.048 0 2.828l-1.764 1.764c-0.388 0.392-0.9 0.588-1.412 0.588z" fill="#000000"></path>
	<path d="M58.96 54.5c-5.244 0-9.5-4.26-9.5-9.5s4.256-9.5 9.5-9.5c5.236 0 9.5 4.26 9.5 9.5s-4.264 9.5-9.5 9.5zM58.96 39.5c-3.032 0-5.5 2.468-5.5 5.5s2.468 5.5 5.5 5.5c3.032 0 5.5-2.468 5.5-5.5s-2.468-5.5-5.5-5.5z" fill="#000000"></path>
	<path d="M43.96 69.5c-1.104 0-2-0.9-2-2v-2.5c0-1.1 0.896-2 2-2 1.1 0 2 0.9 2 2v2.5c0 1.1-0.9 2-2 2z" fill="#000000"></path>
	<path d="M43.96 87c-1.104 0-2-0.9-2-2v-2.5c0-1.1 0.896-2 2-2 1.1 0 2 0.9 2 2v2.5c0 1.1-0.9 2-2 2z" fill="#000000"></path>
	<path d="M36.46 77h-2.5c-1.104 0-2-0.9-2-2s0.896-2 2-2h2.5c1.1 0 2 0.9 2 2s-0.9 2-2 2z" fill="#000000"></path>
	<path d="M53.96 77h-2.5c-1.104 0-2-0.9-2-2s0.896-2 2-2h2.5c1.1 0 2 0.9 2 2s-0.9 2-2 2z" fill="#000000"></path>
	<path d="M38.656 71.696c-0.512 0-1.024-0.196-1.416-0.584l-1.768-1.76c-0.78-0.776-0.78-2.052 0-2.828 0.776-0.784 2.048-0.776 2.828 0l1.768 1.76c0.78 0.78 0.78 2.048 0 2.828-0.392 0.388-0.9 0.584-1.412 0.584z" fill="#000000"></path>
	<path d="M51.024 84.072c-0.512 0-1.024-0.196-1.416-0.584l-1.768-1.76c-0.78-0.78-0.78-2.052 0-2.828 0.78-0.78 2.048-0.78 2.828 0l1.768 1.76c0.78 0.776 0.78 2.052 0 2.828-0.388 0.388-0.9 0.584-1.412 0.584z" fill="#000000"></path>
	<path d="M36.884 84.072c-0.512 0-1.024-0.196-1.416-0.584-0.78-0.776-0.78-2.052 0-2.828l1.764-1.76c0.78-0.78 2.048-0.78 2.828 0 0.78 0.776 0.78 2.048 0 2.828l-1.764 1.76c-0.384 0.388-0.896 0.584-1.412 0.584z" fill="#000000"></path>
	<path d="M49.256 71.696c-0.512 0-1.024-0.196-1.416-0.584-0.78-0.78-0.78-2.052 0-2.828l1.768-1.764c0.78-0.78 2.048-0.78 2.828 0s0.78 2.048 0 2.828l-1.768 1.764c-0.384 0.388-0.9 0.584-1.412 0.584z" fill="#000000"></path>
	<path d="M43.96 84.5c-5.244 0-9.5-4.256-9.5-9.5s4.256-9.5 9.5-9.5c5.24 0 9.5 4.256 9.5 9.5s-4.268 9.5-9.5 9.5zM43.96 69.5c-3.032 0-5.5 2.468-5.5 5.5s2.468 5.5 5.5 5.5c3.032 0 5.5-2.468 5.5-5.5s-2.468-5.5-5.5-5.5z" fill="#000000"></path>
</svg>
