<?xml version="1.0" encoding="utf-8"?>
<!-- Generated by IcoMoon.io -->
<!DOCTYPE svg PUBLIC "-//W3C//DTD SVG 1.1//EN" "http://www.w3.org/Graphics/SVG/1.1/DTD/svg11.dtd">
<svg version="1.1" xmlns="http://www.w3.org/2000/svg" xmlns:xlink="http://www.w3.org/1999/xlink" width="145" height="120" viewBox="0 0 145 120">
<g id="icomoon-ignore">
	<line stroke-width="1" x1="" y1="" x2="" y2="" stroke="#449FDB" opacity=""></line>
</g>
	<path d="M142.956 114.856c-1.1 0-2-0.896-2-2 0-12.476-20.264-23-33-23-0.86 0-1.624-0.552-1.9-1.368l-5-15c-0.344-1.052 0.22-2.18 1.26-2.528 1.060-0.36 2.18 0.22 2.532 1.264l4.56 13.664c14.548 0.732 35.548 12.068 35.548 26.964 0 1.1-0.892 2.004-2 2.004z" fill="#000000"></path>
	<path d="M92.956 74.856c-1.1 0-2-0.896-2-2s0.9-2 2-2c25.016 0 34.756-12.704 37.712-17.948-2.008-3.412-8.5-14.7-9.656-19.592-2.024-8.556-8.796-28.46-28.056-28.46-1.1 0-2-0.896-2-2s0.9-2 2-2c15.572 0 27.212 11.496 31.944 31.54 1 4.216 7.392 15.456 9.768 19.432 0.348 0.584 0.38 1.312 0.076 1.92-2.476 4.952-12.804 21.108-41.788 21.108z" fill="#000000"></path>
	<path d="M52.96 84.856c-14.388 0-25.292-15.524-26.172-30.116-6.256-0.784-6.784-5.384-6.784-6.884v-10c0-2.852 2.512-5.044 4-6.092v-8.908c0-11.924 7.064-16.876 24.34-17 7.096-5.124 13.932-6.212 18.464-6.212 8.688 0 16.188 3.916 19.1 9.984 2.14 4.46 1.46 9.38-1.916 13.912v8.228c1.492 1.048 4 3.24 4 6.092v10c0 3.132-2.444 6.292-7.836 6.896-0.988 14.072-12.748 30.1-27.196 30.1zM66.808 3.64c-4.040 0-10.2 1.008-16.604 5.812-0.344 0.26-0.76 0.4-1.2 0.4-19.396 0-21 6.152-21 13v10c0 0.72-0.392 1.388-1.020 1.744-1.252 0.708-2.984 2.232-2.984 3.256v10c0 0.896 0 3 4.728 3 1.104 0 2 0.896 2 2 0 12.944 9.708 28 22.228 28 12.892 0 23.272-15.32 23.272-28 0-1.104 0.9-2 2-2 3.4 0 5.768-1.232 5.768-3v-10c0-1.024-1.76-2.576-2.972-3.256-0.632-0.352-1.028-1.020-1.028-1.744v-10c0-0.456 0.152-0.896 0.432-1.248 2.772-3.472 3.416-7.016 1.868-10.248-2.216-4.612-8.44-7.716-15.488-7.716z" fill="#000000"></path>
	<path d="M2 120.356c-1.104 0-2-0.896-2-2v-5.5c0-14.088 9.516-22.5 25.456-22.5h6.452l8.084-11.688c0.628-0.912 1.872-1.136 2.784-0.508 0.908 0.628 1.136 1.88 0.504 2.776l-8.68 12.556c-0.372 0.54-0.988 0.864-1.644 0.864h-7.496c-13.636 0-21.456 6.748-21.456 18.5v5.5c-0.004 1.104-0.9 2-2.004 2z" fill="#000000"></path>
	<path d="M106.004 120.356c-1.1 0-2-0.896-2-2v-5.5c0-13.636-11.952-18.5-23.14-18.5h-7.5c-0.688 0-1.332-0.356-1.696-0.94l-7.84-12.552c-0.584-0.932-0.3-2.168 0.636-2.752 0.94-0.584 2.172-0.292 2.756 0.64l7.256 11.604h6.396c16.484 0 27.132 8.832 27.132 22.5v5.5c0 1.104-0.9 2-2 2z" fill="#000000"></path>
</svg>
