<?xml version="1.0" encoding="utf-8"?>
<!-- Generated by IcoMoon.io -->
<!DOCTYPE svg PUBLIC "-//W3C//DTD SVG 1.1//EN" "http://www.w3.org/Graphics/SVG/1.1/DTD/svg11.dtd">
<svg version="1.1" xmlns="http://www.w3.org/2000/svg" xmlns:xlink="http://www.w3.org/1999/xlink" width="120" height="120" viewBox="0 0 120 120">
<g id="icomoon-ignore">
	<line stroke-width="1" x1="" y1="" x2="" y2="" stroke="#449FDB" opacity=""></line>
</g>
	<path d="M90 120h-60c-1.104 0-2-0.9-2-2v-112c0-1.104 0.896-2 2-2h60c1.1 0 2 0.896 2 2v112c0 1.1-0.9 2-2 2zM32 116h56v-108h-56v108z" fill="#000000"></path>
	<path d="M72 4h-24c-1.104 0-2-0.896-2-2s0.896-2 2-2h24c1.1 0 2 0.896 2 2s-0.9 2-2 2z" fill="#000000"></path>
	<path d="M54 44h-12c-1.104 0-2-0.896-2-2v-20c0-1.104 0.896-2 2-2h12c1.104 0 2 0.896 2 2v20c0 1.104-0.896 2-2 2zM44 40h8v-16h-8v16z" fill="#000000"></path>
	<path d="M78 44h-12c-1.1 0-2-0.896-2-2v-20c0-1.104 0.9-2 2-2h12c1.1 0 2 0.896 2 2v20c0 1.104-0.9 2-2 2zM68 40h8v-16h-8v16z" fill="#000000"></path>
	<path d="M54 76h-12c-1.104 0-2-0.9-2-2v-20c0-1.104 0.896-2 2-2h12c1.104 0 2 0.896 2 2v20c0 1.1-0.896 2-2 2zM44 72h8v-16h-8v16z" fill="#000000"></path>
	<path d="M78 76h-12c-1.1 0-2-0.9-2-2v-20c0-1.104 0.9-2 2-2h12c1.1 0 2 0.896 2 2v20c0 1.1-0.9 2-2 2zM68 72h8v-16h-8v16z" fill="#000000"></path>
	<path d="M70 120h-20c-1.104 0-2-0.9-2-2v-32c0-1.1 0.896-2 2-2h20c1.1 0 2 0.9 2 2v32c0 1.1-0.9 2-2 2zM52 116h16v-28h-16v28z" fill="#000000"></path>
</svg>
