<?xml version="1.0" encoding="utf-8"?>
<!-- Generator: Adobe Illustrator 23.0.3, SVG Export Plug-In . SVG Version: 6.00 Build 0)  -->
<svg version="1.1" id="Layer_1" xmlns="http://www.w3.org/2000/svg" xmlns:xlink="http://www.w3.org/1999/xlink" x="0px" y="0px"
	 viewBox="0 0 500 500" style="enable-background:new 0 0 500 500;" xml:space="preserve">
<style type="text/css">
	.st0{fill:#FFFFFF;}
</style>
<g>
	<g>
		<path class="st0" d="M246.7,0C108.6,1.9-1.8,115.3,0,253.4c1.8,138,115.3,248.5,253.3,246.6c138-1.9,248.5-115.3,246.6-253.3
			C498.1,108.6,384.7-1.8,246.7,0z M245.9,402.2l-1.4,0c-21.3-0.6-36.2-16.3-35.6-37.2c0.6-20.6,15.9-35.5,36.5-35.5l1.2,0
			c21.9,0.6,36.7,16.2,36.1,37.7C282.1,387.7,267,402.2,245.9,402.2z M335.4,224.7c-5,7.1-16,15.9-29.8,26.7l-15.3,10.5
			c-8.4,6.5-13.4,12.6-15.3,18.7c-1.5,4.7-2.2,6-2.4,15.7l0,2.5h-58.2l0.2-4.9c0.7-20.3,1.2-32.2,9.6-42
			c13.2-15.5,42.2-34.2,43.5-35c4.2-3.1,7.7-6.7,10.3-10.5c6.1-8.4,8.8-15.1,8.8-21.6c0-9-2.7-17.4-8-24.9
			c-5.1-7.2-14.8-10.8-28.8-10.8c-13.9,0-23.4,4.4-29.1,13.5c-5.9,9.3-8.8,19.1-8.8,29.1v2.5h-60.1l0.1-2.6
			c1.5-36.8,14.7-63.3,39-78.7c15.3-9.8,34.3-14.8,56.5-14.8c29.1,0,53.6,7.1,72.9,21c19.6,14.1,29.5,35.2,29.5,62.8
			C349.8,197,345,211.5,335.4,224.7z"/>
	</g>
</g>
</svg>
