<?xml version="1.0" encoding="utf-8"?>
<!-- Generated by IcoMoon.io -->
<!DOCTYPE svg PUBLIC "-//W3C//DTD SVG 1.1//EN" "http://www.w3.org/Graphics/SVG/1.1/DTD/svg11.dtd">
<svg version="1.1" xmlns="http://www.w3.org/2000/svg" xmlns:xlink="http://www.w3.org/1999/xlink" width="120" height="120" viewBox="0 0 120 120">
<g id="icomoon-ignore">
	<line stroke-width="1" x1="" y1="" x2="" y2="" stroke="#449FDB" opacity=""></line>
</g>
	<path d="M10 116.996c-1.104 0-2-0.896-2-2 0-14.904 21-26.24 35.548-26.964l4.556-13.668c0.348-1.052 1.472-1.62 2.532-1.26 1.048 0.344 1.608 1.476 1.26 2.524l-5 15c-0.272 0.82-1.036 1.368-1.896 1.368-12.736 0-33 10.524-33 23 0 1.096-0.9 2-2 2z" fill="#000000"></path>
	<path d="M110 116.996c-1.104 0-2-0.896-2-2 0-12.476-20.268-23-33-23-0.86 0-1.624-0.552-1.9-1.368l-5-15c-0.348-1.052 0.22-2.18 1.264-2.528 1.060-0.356 2.18 0.22 2.528 1.264l4.556 13.664c14.552 0.732 35.552 12.068 35.552 26.972 0 1.092-0.9 1.996-2 1.996z" fill="#000000"></path>
	<path d="M60 76.996c-28.984 0-39.312-16.156-41.788-21.104-0.304-0.612-0.276-1.336 0.076-1.92 2.38-3.976 8.772-15.216 9.764-19.432 4.736-20.044 16.376-31.54 31.948-31.54 15.568 0 27.212 11.496 31.948 31.54 0.996 4.216 7.388 15.456 9.764 19.432 0.348 0.584 0.376 1.312 0.076 1.92-2.476 4.948-12.804 21.104-41.788 21.104zM22.292 55.048c2.948 5.244 12.692 17.948 37.708 17.948s34.752-12.704 37.708-17.948c-2.004-3.412-8.5-14.7-9.656-19.592-2.020-8.556-8.8-28.46-28.052-28.46s-26.032 19.904-28.052 28.46c-1.156 4.892-7.652 16.18-9.656 19.592z" fill="#000000"></path>
</svg>
