<?xml version="1.0" encoding="utf-8"?>
<!-- Generated by IcoMoon.io -->
<!DOCTYPE svg PUBLIC "-//W3C//DTD SVG 1.1//EN" "http://www.w3.org/Graphics/SVG/1.1/DTD/svg11.dtd">
<svg version="1.1" xmlns="http://www.w3.org/2000/svg" xmlns:xlink="http://www.w3.org/1999/xlink" width="120" height="120" viewBox="0 0 120 120">
<g id="icomoon-ignore">
	<line stroke-width="1" x1="" y1="" x2="" y2="" stroke="#449FDB" opacity=""></line>
</g>
	<path d="M33 36.752h-28c-1.104 0-2-0.896-2-2v-28c0-1.104 0.896-2 2-2h28c1.104 0 2 0.896 2 2v28c0 1.104-0.896 2-2 2zM7 32.752h24v-24h-24v24z" fill="#000000"></path>
	<path d="M18.956 27.252c-0.148 0-0.3-0.016-0.444-0.052-0.588-0.132-1.084-0.528-1.352-1.072l-4.788-9.792c-0.484-0.992-0.076-2.188 0.916-2.676 0.996-0.48 2.188-0.072 2.676 0.92l3.7 7.568 23.476-18.472c0.868-0.684 2.128-0.532 2.808 0.336s0.532 2.124-0.336 2.808l-25.42 20c-0.356 0.284-0.792 0.432-1.236 0.432z" fill="#000000"></path>
	<path d="M33 76.752h-28c-1.104 0-2-0.896-2-2v-28c0-1.104 0.896-2 2-2h28c1.104 0 2 0.896 2 2v28c0 1.108-0.896 2-2 2zM7 72.752h24v-24h-24v24z" fill="#000000"></path>
	<path d="M18.956 67.252c-0.148 0-0.3-0.016-0.444-0.052-0.588-0.132-1.084-0.532-1.352-1.076l-4.788-9.792c-0.484-0.992-0.076-2.188 0.916-2.676 0.996-0.48 2.188-0.072 2.676 0.92l3.7 7.568 23.476-18.472c0.868-0.684 2.128-0.532 2.808 0.336s0.532 2.124-0.336 2.808l-25.42 20c-0.356 0.288-0.792 0.436-1.236 0.436z" fill="#000000"></path>
	<path d="M33 116.752h-28c-1.104 0-2-0.896-2-2v-28c0-1.104 0.896-2 2-2h28c1.104 0 2 0.896 2 2v28c0 1.108-0.896 2-2 2zM7 112.752h24v-24h-24v24z" fill="#000000"></path>
	<path d="M115 96.752h-56c-1.104 0-2-0.896-2-2s0.896-2 2-2h56c1.1 0 2 0.896 2 2s-0.9 2-2 2z" fill="#000000"></path>
	<path d="M115 108.752h-56c-1.104 0-2-0.896-2-2s0.896-2 2-2h56c1.1 0 2 0.896 2 2s-0.9 2-2 2z" fill="#000000"></path>
	<path d="M115 56.752h-56c-1.104 0-2-0.896-2-2s0.896-2 2-2h56c1.1 0 2 0.896 2 2s-0.9 2-2 2z" fill="#000000"></path>
	<path d="M115 68.752h-56c-1.104 0-2-0.896-2-2s0.896-2 2-2h56c1.1 0 2 0.896 2 2s-0.9 2-2 2z" fill="#000000"></path>
	<path d="M115 16.752h-56c-1.104 0-2-0.896-2-2s0.896-2 2-2h56c1.1 0 2 0.896 2 2s-0.9 2-2 2z" fill="#000000"></path>
	<path d="M115 28.752h-56c-1.104 0-2-0.896-2-2s0.896-2 2-2h56c1.1 0 2 0.896 2 2s-0.9 2-2 2z" fill="#000000"></path>
</svg>
