<?xml version="1.0" encoding="utf-8"?>
<!-- Generated by IcoMoon.io -->
<!DOCTYPE svg PUBLIC "-//W3C//DTD SVG 1.1//EN" "http://www.w3.org/Graphics/SVG/1.1/DTD/svg11.dtd">
<svg version="1.1" xmlns="http://www.w3.org/2000/svg" xmlns:xlink="http://www.w3.org/1999/xlink" width="120" height="120" viewBox="0 0 120 120">
<g id="icomoon-ignore">
	<line stroke-width="1" x1="" y1="" x2="" y2="" stroke="#449FDB" opacity=""></line>
</g>
	<path d="M72 110c-1.1 0-2-0.9-2-2v-24c0-1.1 0.9-2 2-2s2 0.9 2 2v24c0 1.1-0.9 2-2 2z" fill="#000000"></path>
	<path d="M84 110c-1.1 0-2-0.9-2-2v-8c0-1.1 0.9-2 2-2s2 0.9 2 2v8c0 1.1-0.9 2-2 2z" fill="#000000"></path>
	<path d="M92 110c-1.1 0-2-0.9-2-2v-32c0-1.1 0.9-2 2-2s2 0.9 2 2v32c0 1.1-0.9 2-2 2z" fill="#000000"></path>
	<path d="M104 110c-1.1 0-2-0.9-2-2v-24c0-1.1 0.9-2 2-2s2 0.9 2 2v24c0 1.1-0.9 2-2 2z" fill="#000000"></path>
	<path d="M58 120h-42c-1.104 0-2-0.9-2-2v-88.088c0-0.512 0.196-1.004 0.548-1.376l26.456-27.912c0.376-0.4 0.904-0.624 1.452-0.624h61.544c1.1 0 2 0.896 2 2v62c0 1.1-0.9 2-2 2s-2-0.9-2-2v-60h-58.684l-25.316 26.708v85.292h40c1.104 0 2 0.9 2 2s-0.896 2-2 2z" fill="#000000"></path>
	<path d="M44 32h-26c-1.104 0-2-0.896-2-2s0.896-2 2-2h24v-24c0-1.104 0.896-2 2-2s2 0.896 2 2v26c0 1.104-0.896 2-2 2z" fill="#000000"></path>
</svg>
