<?xml version="1.0" encoding="utf-8"?>
<!-- Generator: Adobe Illustrator 23.0.3, SVG Export Plug-In . SVG Version: 6.00 Build 0)  -->
<svg version="1.1" id="Layer_1" xmlns="http://www.w3.org/2000/svg" xmlns:xlink="http://www.w3.org/1999/xlink" x="0px" y="0px"
	 viewBox="0 0 500 500" style="enable-background:new 0 0 500 500;" xml:space="preserve">
<style type="text/css">
	.st0{fill:#333333;}
</style>
<g>
	<g>
		<path class="st0" d="M141,222.9c24.8,0,45-20.2,45-45c0-24.8-20.2-45-45-45s-45,20.2-45,45C96,202.7,116.2,222.9,141,222.9z
			 M141,149.1c15.9,0,28.8,12.9,28.8,28.8s-12.9,28.8-28.8,28.8s-28.8-12.9-28.8-28.8S125.1,149.1,141,149.1z"/>
		<path class="st0" d="M68.3,367.1c1.9,0,3.8-0.7,5.3-2l131.7-116l83.2,83.2c3.2,3.2,8.3,3.2,11.4,0c3.2-3.2,3.2-8.3,0-11.4
			l-38.8-38.8l74.1-81.2l90.9,83.4c3.3,3,8.4,2.8,11.4-0.5c3-3.3,2.8-8.4-0.5-11.4l-96.9-88.8c-1.6-1.4-3.7-2.2-5.8-2.1
			c-2.1,0.1-4.2,1-5.6,2.6l-79.1,86.6l-38.3-38.3c-3-3-7.8-3.2-11-0.4L63,353c-3.4,2.9-3.7,8.1-0.7,11.4
			C63.8,366.2,66.1,367.1,68.3,367.1z"/>
	</g>
	<path class="st0" d="M250,18.4c31.3,0,61.6,6.1,90.1,18.2c27.6,11.7,52.3,28.4,73.6,49.6c21.3,21.3,38,46,49.6,73.6
		c12.1,28.5,18.2,58.9,18.2,90.1s-6.1,61.6-18.2,90.1c-11.7,27.6-28.4,52.3-49.6,73.6c-21.3,21.3-46,38-73.6,49.6
		c-28.5,12.1-58.9,18.2-90.1,18.2s-61.6-6.1-90.1-18.2c-27.6-11.7-52.3-28.4-73.6-49.6c-21.3-21.3-38-46-49.6-73.6
		c-12.1-28.5-18.2-58.9-18.2-90.1s6.1-61.6,18.2-90.1c11.7-27.6,28.4-52.3,49.6-73.6s46-38,73.6-49.6
		C188.4,24.6,218.7,18.4,250,18.4 M250,8.4C116.6,8.4,8.4,116.6,8.4,250S116.6,491.6,250,491.6S491.6,383.4,491.6,250
		S383.4,8.4,250,8.4L250,8.4z"/>
</g>
</svg>
